<svg xmlns="http://www.w3.org/2000/svg" id="instagram" width="16.647" height="16.647" viewBox="0 0 16.647 16.647"><path id="Path_24957" data-name="Path 24957" d="M12.14,0H4.505A4.511,4.511,0,0,0,0,4.506v7.635a4.511,4.511,0,0,0,4.506,4.506H12.14a4.511,4.511,0,0,0,4.506-4.506V4.506A4.511,4.511,0,0,0,12.14,0ZM8.323,12.875a4.552,4.552,0,1,1,4.552-4.552A4.557,4.557,0,0,1,8.323,12.875Zm4.661-8.03A1.345,1.345,0,1,1,14.328,3.5,1.346,1.346,0,0,1,12.983,4.845Zm0,0" transform="translate(0.001 0)"></path><path id="Path_24958" data-name="Path 24958" d="M149.6,146.02a3.576,3.576,0,1,0,3.576,3.576A3.58,3.58,0,0,0,149.6,146.02Zm0,0" transform="translate(-141.272 -141.272)"></path><path id="Path_24959" data-name="Path 24959" d="M388.361,96.3a.369.369,0,1,0,.369.369A.37.37,0,0,0,388.361,96.3Zm0,0" transform="translate(-375.377 -93.17)"></path></svg>