<svg xmlns="http://www.w3.org/2000/svg" id="linkedin" width="13.539" height="13.015" viewBox="0 0 13.539 13.015"><g id="Group_5" data-name="Group 5" transform="translate(0 3.707)"><g id="Group_4" data-name="Group 4"><rect id="Rectangle_2" data-name="Rectangle 2" width="3.028" height="9.308"></rect></g></g><g id="Group_7" data-name="Group 7" transform="translate(4.231 3.707)"><g id="Group_6" data-name="Group 6"><path id="Path_6" data-name="Path 6" d="M167.044,160.109c-.032-.01-.063-.021-.1-.03s-.081-.017-.123-.024a2.712,2.712,0,0,0-.543-.055,4.207,4.207,0,0,0-3.254,1.78V160H160v9.308h3.028v-5.077s2.288-3.187,3.254-.846v5.923h3.027v-6.281A3.019,3.019,0,0,0,167.044,160.109Z" transform="translate(-160 -160)"></path></g></g><g id="Group_9" data-name="Group 9" transform="translate(0.524 0)"><g id="Group_8" data-name="Group 8" transform="translate(0 0)"><circle id="Ellipse_5" data-name="Ellipse 5" cx="1.07" cy="1.07" r="1.07"></circle></g></g></svg>