<svg xmlns="http://www.w3.org/2000/svg" id="twitter" width="15.583" height="12.661" viewBox="0 0 15.583 12.661"><g id="Group_3" data-name="Group 3" transform="translate(0 0)"><path id="Path_2" data-name="Path 2" d="M15.583,49.5a6.661,6.661,0,0,1-1.841.5,3.177,3.177,0,0,0,1.405-1.766,6.384,6.384,0,0,1-2.026.773A3.194,3.194,0,0,0,7.6,51.2a3.29,3.29,0,0,0,.074.729,9.042,9.042,0,0,1-6.585-3.342,3.2,3.2,0,0,0,.982,4.27,3.155,3.155,0,0,1-1.443-.393v.035a3.209,3.209,0,0,0,2.559,3.139,3.189,3.189,0,0,1-.838.105,2.825,2.825,0,0,1-.6-.055,3.225,3.225,0,0,0,2.985,2.225A6.419,6.419,0,0,1,.765,59.271,5.983,5.983,0,0,1,0,59.227a8.994,8.994,0,0,0,4.9,1.434,9.03,9.03,0,0,0,9.093-9.091c0-.141,0-.278-.012-.413A6.373,6.373,0,0,0,15.583,49.5Z" transform="translate(0 -48)"></path></g></svg>